<svg width="40" height="40" viewBox="0 0 40 40" fill="none" xmlns="http://www.w3.org/2000/svg">
<circle cx="20" cy="20" r="20" fill="#0A2027"/>
<path d="M23 16H27.323C27.732 16 28.1 16.249 28.251 16.629L29.857 20.643C29.951 20.879 30 21.131 30 21.385V27.333C30 27.885 29.552 28.333 29 28.333H27.169" stroke="white" stroke-width="1.5" stroke-linecap="round" stroke-linejoin="round"/>
<path d="M24 28.4199H16.17" stroke="white" stroke-width="1.5" stroke-linecap="round" stroke-linejoin="round"/>
<path d="M30 23H26V19H29.2" stroke="white" stroke-width="1.5" stroke-linecap="round" stroke-linejoin="round"/>
<path d="M20.556 14H22C22.552 14 23 14.448 23 15V24H10" stroke="white" stroke-width="1.5" stroke-linecap="round" stroke-linejoin="round"/>
<path d="M15.739 10.0499C13.988 10.3179 12.556 11.7499 12.288 13.5009C11.858 16.3109 14.244 18.6969 17.054 18.2669C18.805 17.9989 20.237 16.5669 20.505 14.8159C20.936 12.0059 18.549 9.61988 15.739 10.0499V10.0499Z" stroke="white" stroke-width="1.5" stroke-linecap="round" stroke-linejoin="round"/>
<path d="M26.7041 27.296C27.3227 27.9146 27.3227 28.9175 26.7041 29.5361C26.0855 30.1547 25.0826 30.1547 24.464 29.5361C23.8454 28.9175 23.8454 27.9146 24.464 27.296C25.0826 26.6774 26.0855 26.6774 26.7041 27.296Z" stroke="white" stroke-width="1.5" stroke-linecap="round" stroke-linejoin="round"/>
<path d="M15.7041 27.296C16.3226 27.9146 16.3226 28.9175 15.7041 29.5361C15.0855 30.1547 14.0825 30.1547 13.4639 29.5361C12.8454 28.9175 12.8454 27.9146 13.4639 27.296C14.0825 26.6774 15.0855 26.6774 15.7041 27.296Z" stroke="white" stroke-width="1.5" stroke-linecap="round" stroke-linejoin="round"/>
<path d="M13 28.416H11C10.448 28.416 10 27.968 10 27.416V15C10 14.448 10.448 14 11 14H12.238" stroke="white" stroke-width="1.5" stroke-linecap="round" stroke-linejoin="round"/>
<path d="M18 13.9997H16V12.1587" stroke="white" stroke-width="1.5" stroke-linecap="round" stroke-linejoin="round"/>
</svg>
