<svg width="86" height="86" viewBox="0 0 86 86" fill="none" xmlns="http://www.w3.org/2000/svg">
<circle cx="43" cy="43" r="43" fill="#0A2027"/>
<g clip-path="url(#clip0_133_3259)">
<path d="M43 65.5612C55.46 65.5612 65.5609 55.4603 65.5609 43.0003C65.5609 30.5403 55.46 20.4395 43 20.4395C30.54 20.4395 20.4391 30.5403 20.4391 43.0003C20.4391 55.4603 30.54 65.5612 43 65.5612Z" fill="#FFD754"/>
<path d="M43 60.8931C52.8821 60.8931 60.8931 52.8821 60.8931 43C60.8931 33.1179 52.8821 25.1069 43 25.1069C33.1179 25.1069 25.1069 33.1179 25.1069 43C25.1069 52.8821 33.1179 60.8931 43 60.8931Z" fill="#EDB90C"/>
<path d="M50.0017 38.3323C50.0003 37.0948 49.5081 35.9083 48.633 35.0332C47.7579 34.1582 46.5715 33.6659 45.3339 33.6646H38.3323C38.126 33.6646 37.9281 33.7465 37.7822 33.8924C37.6363 34.0383 37.5543 34.2362 37.5543 34.4425V51.5576C37.5543 51.764 37.6363 51.9618 37.7822 52.1077C37.9281 52.2536 38.126 52.3356 38.3323 52.3356C38.5386 52.3356 38.7365 52.2536 38.8824 52.1077C39.0283 51.9618 39.1102 51.764 39.1102 51.5576V43.0001H44.0752L48.5279 51.9056C48.5731 51.9978 48.6362 52.0801 48.7133 52.1478C48.7905 52.2155 48.8803 52.2673 48.9776 52.3002C49.0749 52.333 49.1777 52.3463 49.2801 52.3392C49.3826 52.3321 49.4826 52.3048 49.5744 52.2589C49.6662 52.213 49.7481 52.1493 49.8152 52.0716C49.8823 51.9939 49.9334 51.9037 49.9654 51.8062C49.9975 51.7086 50.01 51.6057 50.0021 51.5033C49.9942 51.401 49.9662 51.3012 49.9195 51.2097L45.8029 42.9765C46.9533 42.8589 48.0192 42.319 48.7947 41.4612C49.5702 40.6035 50.0003 39.4887 50.0017 38.3323ZM45.3339 41.4442H39.1102V35.2205H45.3339C46.1592 35.2205 46.9507 35.5483 47.5343 36.1319C48.1179 36.7155 48.4458 37.507 48.4458 38.3323C48.4458 39.1576 48.1179 39.9491 47.5343 40.5327C46.9507 41.1163 46.1592 41.4442 45.3339 41.4442Z" fill="#FBE36A"/>
<path d="M25.3775 40.6662C25.2639 40.6664 25.1516 40.6416 25.0486 40.5937C24.9455 40.5458 24.8543 40.4759 24.7811 40.3889C24.708 40.3019 24.6548 40.2 24.6253 40.0903C24.5958 39.9805 24.5907 39.8657 24.6103 39.7538C25.2793 35.9823 27.0906 32.5074 29.799 29.799C32.5074 27.0905 35.9824 25.2794 39.7538 24.6104C39.8548 24.5919 39.9584 24.5936 40.0588 24.6153C40.1591 24.6371 40.2541 24.6785 40.3384 24.7371C40.4226 24.7957 40.4944 24.8705 40.5497 24.957C40.6049 25.0435 40.6425 25.1401 40.6602 25.2412C40.6779 25.3423 40.6755 25.4459 40.653 25.5461C40.6305 25.6463 40.5884 25.741 40.5291 25.8248C40.4699 25.9086 40.3946 25.9799 40.3077 26.0344C40.2207 26.089 40.1239 26.1259 40.0226 26.1429C36.5659 26.756 33.3809 28.4161 30.8985 30.8985C28.4161 33.3809 26.7561 36.5659 26.1429 40.0227C26.1113 40.2028 26.0173 40.366 25.8773 40.4837C25.7373 40.6014 25.5604 40.666 25.3775 40.6662Z" fill="#FBEFB2"/>
<path d="M46.111 61.4017C45.9163 61.4017 45.7287 61.3286 45.5852 61.197C45.4418 61.0654 45.3529 60.8847 45.3361 60.6908C45.3193 60.4968 45.3759 60.3036 45.4946 60.1493C45.6134 59.995 45.7857 59.8908 45.9775 59.8574C49.4342 59.2442 52.6192 57.5841 55.1016 55.1017C57.584 52.6193 59.244 49.4343 59.8572 45.9776C59.8748 45.8769 59.9121 45.7808 59.9669 45.6946C60.0217 45.6083 60.093 45.5338 60.1766 45.4751C60.2603 45.4164 60.3546 45.3748 60.4544 45.3526C60.5541 45.3304 60.6572 45.328 60.7578 45.3457C60.8585 45.3633 60.9546 45.4006 61.0409 45.4554C61.1271 45.5103 61.2016 45.5815 61.2603 45.6652C61.319 45.7488 61.3606 45.8432 61.3828 45.9429C61.405 46.0426 61.4074 46.1457 61.3897 46.2464C60.7208 50.0178 58.9095 53.4928 56.2011 56.2012C53.4927 58.9097 50.0177 60.7209 46.2463 61.3899C46.2016 61.3977 46.1563 61.4017 46.111 61.4017Z" fill="#FBEFB2"/>
<path d="M25.1069 43.7781C25.5366 43.7781 25.8849 43.4298 25.8849 43.0001C25.8849 42.5705 25.5366 42.2222 25.1069 42.2222C24.6773 42.2222 24.329 42.5705 24.329 43.0001C24.329 43.4298 24.6773 43.7781 25.1069 43.7781Z" fill="#FBEFB2"/>
<path d="M43 25.885C43.4297 25.885 43.778 25.5367 43.778 25.1071C43.778 24.6774 43.4297 24.3291 43 24.3291C42.5704 24.3291 42.222 24.6774 42.222 25.1071C42.222 25.5367 42.5704 25.885 43 25.885Z" fill="#FBEFB2"/>
<path d="M60.8931 43.7781C61.3228 43.7781 61.6711 43.4298 61.6711 43.0001C61.6711 42.5705 61.3228 42.2222 60.8931 42.2222C60.4635 42.2222 60.1152 42.5705 60.1152 43.0001C60.1152 43.4298 60.4635 43.7781 60.8931 43.7781Z" fill="#FBEFB2"/>
<path d="M43 61.6712C43.4297 61.6712 43.778 61.3228 43.778 60.8932C43.778 60.4635 43.4297 60.1152 43 60.1152C42.5704 60.1152 42.222 60.4635 42.222 60.8932C42.222 61.3228 42.5704 61.6712 43 61.6712Z" fill="#FBEFB2"/>
<ellipse cx="56.7931" cy="56.7931" rx="11.1017" ry="11.1017" fill="#00AC6F"/>
<path d="M56.793 53.0928V60.4939V53.0928Z" fill="#00AC6F"/>
<path d="M56.793 53.0928V60.4939" stroke="white" stroke-width="1.5" stroke-linecap="round" stroke-linejoin="round"/>
<path d="M60.4936 56.793H53.0925H60.4936Z" fill="#00AC6F"/>
<path d="M60.4936 56.793H53.0925" stroke="white" stroke-width="1.5" stroke-linecap="round" stroke-linejoin="round"/>
</g>
<defs>
<clipPath id="clip0_133_3259">
<rect width="49.7895" height="49.7895" fill="white" transform="translate(18.1053 18.1055)"/>
</clipPath>
</defs>
</svg>
