<svg width="44" height="44" viewBox="0 0 44 44" fill="none" xmlns="http://www.w3.org/2000/svg">
    <circle cx="22" cy="22" r="22" fill="#696969" />
    <path
        d="M16 31H14C13.448 31 13 30.552 13 30V24C13 23.448 13.448 23 14 23H16C16.552 23 17 23.448 17 24V30C17 30.552 16.552 31 16 31Z"
        stroke="white" stroke-width="1.5" stroke-linecap="round" stroke-linejoin="round" />
    <path
        d="M23 27.0001H25.333C25.766 27.0001 26.187 26.8601 26.533 26.6001L28.949 24.7881C29.552 24.3361 30.396 24.3961 30.929 24.9291C31.521 25.5211 31.521 26.4801 30.929 27.0711L28.856 29.1441C28.298 29.7021 27.586 30.0831 26.812 30.2381L23.882 30.8241C23.301 30.9401 22.702 30.9261 22.127 30.7821L19.477 30.1201C19.16 30.0401 18.835 30.0001 18.508 30.0001H17"
        stroke="white" stroke-width="1.5" stroke-linecap="round" stroke-linejoin="round" />
    <path
        d="M23 27H24.485C25.322 27 26 26.322 26 25.485V25.182C26 24.487 25.527 23.881 24.853 23.713L22.561 23.14C22.188 23.047 21.806 23 21.422 23C20.495 23 19.588 23.274 18.817 23.789L17 25"
        stroke="white" stroke-width="1.5" stroke-linecap="round" stroke-linejoin="round" />
    <path
        d="M27.1687 15.1555C28.2771 16.2638 28.2771 18.0607 27.1687 19.169C26.0604 20.2773 24.2635 20.2773 23.1552 19.169C22.0469 18.0607 22.0469 16.2638 23.1552 15.1555C24.2635 14.0471 26.0604 14.0471 27.1687 15.1555Z"
        stroke="white" stroke-width="1.5" stroke-linecap="round" stroke-linejoin="round" />
    <path
        d="M24.631 14.375C24.538 13.81 24.28 13.267 23.844 12.831C22.736 11.723 20.939 11.723 19.831 12.831C18.723 13.939 18.723 15.736 19.831 16.844C20.521 17.534 21.477 17.793 22.368 17.624"
        stroke="white" stroke-width="1.5" stroke-linecap="round" stroke-linejoin="round" />
</svg>
