<svg width="57" height="60" viewBox="0 0 57 60" fill="none" xmlns="http://www.w3.org/2000/svg">
<path d="M50 44C50 45.0609 49.5786 46.0783 48.8284 46.8284C48.0783 47.5786 47.0609 48 46 48H10C8.93913 48 7.92172 47.5786 7.17157 46.8284C6.42143 46.0783 6 45.0609 6 44V22C6 20.9391 6.42143 19.9217 7.17157 19.1716C7.92172 18.4214 8.93913 18 10 18H18L22 12H34L38 18H46C47.0609 18 48.0783 18.4214 48.8284 19.1716C49.5786 19.9217 50 20.9391 50 22V44Z" stroke="#FFF700" stroke-width="2" stroke-linecap="round" stroke-linejoin="round"/>
<path d="M28 40C32.4183 40 36 36.4183 36 32C36 27.5817 32.4183 24 28 24C23.5817 24 20 27.5817 20 32C20 36.4183 23.5817 40 28 40Z" stroke="#FFF700" stroke-width="2" stroke-linecap="round" stroke-linejoin="round"/>
</svg>
