<svg width="36" height="31" viewBox="0 0 36 31" fill="none" xmlns="http://www.w3.org/2000/svg">
<path fill-rule="evenodd" clip-rule="evenodd" d="M2.17 8H8.4397C9.00535 8 9.53046 7.70188 9.82663 7.21997L11.1624 5.55108C11.7547 4.58725 12.8049 4 13.9362 4H22.4638C23.5951 4 24.6453 4.58725 25.2376 5.55108L26.5734 7.21997C26.8695 7.70188 27.3946 8 27.9603 8H33.83C35.0288 8 36 8.97122 36 10.17V28.8294C36 30.0282 35.0288 31 33.83 31H2.17C0.971233 31 0 30.0282 0 28.8294V10.17C0 8.97122 0.971233 8 2.17 8ZM24.4569 6.17594L24.3857 6.07468C23.9753 5.40688 23.2476 5 22.4638 5H13.9362C13.1524 5 12.4247 5.40688 12.0143 6.07468L11.9431 6.17594L10.6415 7.80214C10.1572 8.54583 9.32927 9 8.4397 9H2.17C1.52351 9 1 9.52351 1 10.17V28.8294C1 29.4761 1.5237 30 2.17 30H33.83C34.4763 30 35 29.4761 35 28.8294V10.17C35 9.52351 34.4765 9 33.83 9H27.9603C27.0707 9 26.2428 8.54583 25.7585 7.80214L24.4569 6.17594ZM6.6061 5.59003H4.37263C4.07293 5.59003 3.82999 5.83298 3.82999 6.13267V6.99628H7.14874V6.13267C7.14874 5.83298 6.90579 5.59003 6.6061 5.59003Z" fill="white" fill-opacity="0.5"/>
<path fill-rule="evenodd" clip-rule="evenodd" d="M22.5 18H24.9966C24.8652 14.526 22.0075 11.75 18.5013 11.75C17.2036 11.75 15.9638 12.1305 14.9069 12.8334L14.3531 12.0007C15.5728 11.1896 17.005 10.75 18.5013 10.75C22.5598 10.75 25.8654 13.9736 25.9972 18H28.5L25.5 22L22.5 18ZM14.5 18.5H12.0034C12.1348 21.974 14.9925 24.75 18.4987 24.75C19.7964 24.75 21.0362 24.3695 22.0931 23.6666L22.6469 24.4993C21.4272 25.3104 19.995 25.75 18.4987 25.75C14.4402 25.75 11.1346 22.5264 11.0028 18.5H8.5L11.5 14.5L14.5 18.5Z" fill="white"/>
</svg>
