<svg width="24" height="24" viewBox="0 0 24 24" fill="none" xmlns="http://www.w3.org/2000/svg">
<path d="M18.414 6.414L15.586 3.586C15.211 3.211 14.702 3 14.172 3H7C5.895 3 5 3.895 5 5V19C5 20.105 5.895 21 7 21H17C18.105 21 19 20.105 19 19V7.828C19 7.298 18.789 6.789 18.414 6.414V6.414Z" stroke="#7C9299" stroke-width="1.5" stroke-linecap="round" stroke-linejoin="round"/>
<path d="M19 8H15C14.448 8 14 7.552 14 7V3" stroke="#7C9299" stroke-width="1.5" stroke-linecap="round" stroke-linejoin="round"/>
<path d="M10.005 6C10.002 6 10 6.002 10 6.005C10 6.008 10.002 6.01 10.005 6.01C10.008 6.01 10.01 6.008 10.01 6.005C10.01 6.002 10.008 6 10.005 6Z" stroke="#7C9299" stroke-width="1.5" stroke-linecap="round" stroke-linejoin="round"/>
<path d="M9.99499 9C9.99199 9 9.98999 9.002 9.98999 9.005C9.98999 9.008 9.99199 9.01 9.99499 9.01C9.99799 9.01 9.99999 9.008 9.99999 9.005C9.99999 9.002 9.99799 9 9.99499 9Z" stroke="#7C9299" stroke-width="1.5" stroke-linecap="round" stroke-linejoin="round"/>
<path d="M10.005 11.99C10.002 11.99 10 11.992 10 11.995C10 11.998 10.002 12 10.005 12C10.008 12 10.01 11.998 10.01 11.995C10.01 11.992 10.008 11.99 10.005 11.99Z" stroke="#7C9299" stroke-width="1.5" stroke-linecap="round" stroke-linejoin="round"/>
<path d="M9.99499 15C9.99199 15 9.98999 15.002 9.98999 15.005C9.98999 15.008 9.99199 15.01 9.99499 15.01C9.99799 15.01 9.99999 15.008 9.99999 15.005C9.99999 15.002 9.99799 15 9.99499 15Z" stroke="#7C9299" stroke-width="1.5" stroke-linecap="round" stroke-linejoin="round"/>
<path d="M10.005 17.99C10.002 17.99 10 17.992 10 17.995C10 17.998 10.002 18 10.005 18C10.008 18 10.01 17.998 10.01 17.995C10.01 17.992 10.008 17.99 10.005 17.99Z" stroke="#7C9299" stroke-width="1.5" stroke-linecap="round" stroke-linejoin="round"/>
</svg>
