<svg width="24" height="24" viewBox="0 0 24 24" fill="none" xmlns="http://www.w3.org/2000/svg">
<path d="M8.16995 21.056C6.80495 19.108 6.00195 16.738 6.00195 14.179C6.00195 10.865 8.68695 8.179 11.999 8.179C15.311 8.179 17.996 10.865 17.996 14.179" stroke="#7C9299" stroke-width="1.5" stroke-linecap="round" stroke-linejoin="round"/>
<path d="M18.321 20.163C18.213 20.169 18.107 20.179 17.998 20.179C14.686 20.179 12.001 17.493 12.001 14.179" stroke="#7C9299" stroke-width="1.5" stroke-linecap="round" stroke-linejoin="round"/>
<path d="M13.247 21.821C10.699 20.232 9.00198 17.404 9.00198 14.179C9.00198 12.522 10.345 11.179 12.001 11.179C13.657 11.179 15 12.522 15 14.179C15 15.836 16.343 17.179 17.999 17.179C19.655 17.179 20.998 15.836 20.998 14.179C20.998 9.208 16.97 5.179 12.002 5.179C7.03398 5.179 3.00598 9.208 3.00598 14.179C3.00598 15.287 3.12998 16.366 3.35798 17.406" stroke="#7C9299" stroke-width="1.5" stroke-linecap="round" stroke-linejoin="round"/>
<path d="M20.373 5.973C18.328 3.65 15.338 2.179 12 2.179C8.66195 2.179 5.67195 3.65 3.62695 5.973" stroke="#7C9299" stroke-width="1.5" stroke-linecap="round" stroke-linejoin="round"/>
</svg>
