<svg width="70" height="70" viewBox="0 0 70 70" fill="none" xmlns="http://www.w3.org/2000/svg">
<circle cx="35" cy="35" r="33.5" stroke="#FF0000" stroke-width="3"/>
<path d="M46.3033 46.3033C45.3743 47.2323 43.8258 47.2323 42.8968 46.3033L35 38.4065L27.1032 46.3033C26.1742 47.2323 24.6257 47.2323 23.6967 46.3033C22.7677 45.3743 22.7677 43.8258 23.6967 42.8968L31.5935 35L23.6967 27.1032C22.7677 26.1742 22.7677 24.6257 23.6967 23.6967C24.6257 22.7677 26.1742 22.7677 27.1032 23.6967L35 31.5935L42.8968 23.6967C43.8258 22.7677 45.3743 22.7677 46.3033 23.6967C47.2323 24.6257 47.2323 26.1742 46.3033 27.1032L38.4065 35L46.3033 42.8968C47.2323 43.8258 47.2323 45.3741 46.3033 46.3033Z" fill="#FF0000"/>
</svg>
