<svg width="24" height="24" viewBox="0 0 24 24" fill="none" xmlns="http://www.w3.org/2000/svg">
<path d="M12 1.71429C17.6777 1.71429 22.2857 6.32229 22.2857 12C22.2857 17.6777 17.6777 22.2857 12 22.2857C6.32229 22.2857 1.71429 17.6777 1.71429 12C1.71429 6.32229 6.32229 1.71429 12 1.71429ZM12 3.42857C7.26906 3.42857 3.42858 7.26905 3.42858 12C3.42858 16.731 7.26906 20.5714 12 20.5714C16.731 20.5714 20.5714 16.731 20.5714 12C20.5714 7.26905 16.731 3.42857 12 3.42857ZM12 15.5146C12.6627 15.5146 13.2 16.0519 13.2 16.7146C13.2 17.3774 12.6627 17.9146 12 17.9146C11.3373 17.9146 10.8 17.3774 10.8 16.7146C10.8 16.0519 11.3373 15.5146 12 15.5146ZM11.9434 5.99143C13.7013 5.99143 15.125 7.42982 15.125 9.20571C15.125 9.91286 14.8387 10.5557 14.3853 11.0138L13.6694 11.753C13.2437 12.1891 12.9367 12.5675 12.8071 13.2281C12.7954 13.2877 12.7869 13.3763 12.7814 13.4938C12.7618 13.9172 12.4128 14.2504 11.989 14.2504H11.981C11.5415 14.2504 11.1852 13.8941 11.1852 13.4546L11.1852 13.4525C11.1858 13.2295 11.1928 13.0835 11.2061 13.0143C11.3291 12.374 11.6412 11.7993 12.0787 11.3512L13.0649 10.3387C13.3472 10.0548 13.5342 9.64768 13.5342 9.20571C13.5342 8.32179 12.8184 7.59857 11.9434 7.59857C11.3875 7.59857 10.8958 7.89058 10.6111 8.33028C10.5548 8.41725 10.484 8.55588 10.3987 8.74617C10.2305 9.12103 9.80471 9.30631 9.41584 9.17378L9.38536 9.16339C8.98848 9.02813 8.7764 8.59676 8.91166 8.19988C8.91661 8.18537 8.92199 8.17102 8.92778 8.15682C8.98444 8.01859 9.03886 7.89642 9.09103 7.79029C9.63737 6.6789 10.666 5.99143 11.9434 5.99143Z" fill="#7C9299"/>
</svg>
