<svg width="152" height="152" viewBox="0 0 152 152" fill="none" xmlns="http://www.w3.org/2000/svg">
<circle cx="76" cy="76" r="76" fill="#0A2027"/>
<g clip-path="url(#clip0_173_7027)">
<path d="M105.076 30.5254V119H39.5254C34.8078 119 31 115.002 31 110.285V50.6074L33.0461 49.8686L57.8266 25.2967L59.418 22H96.5508C101.268 22 105.076 25.8078 105.076 30.5254Z" fill="#FFF700"/>
<path d="M105.076 30.5254V119H67.9434V22H96.5508C101.268 22 105.076 25.8078 105.076 30.5254Z" fill="#FFF700"/>
<path d="M31 50.6074H56.5762C58.1469 50.6074 59.418 49.3364 59.418 47.7656V22L31 50.6074Z" fill="#FFFDC7"/>
<path d="M88.0631 98.918C88.0631 100.509 86.7561 101.76 85.2213 101.76H45.209C43.6174 101.76 42.3672 100.509 42.3672 98.918C42.3672 97.3264 43.6174 96.0762 45.209 96.0762H85.2213C86.7561 96.0762 88.0631 97.3264 88.0631 98.918Z" fill="#030316"/>
<path d="M88.0631 98.918C88.0631 100.509 86.7561 101.76 85.2213 101.76H67.9434V96.0762H85.2213C86.7561 96.0762 88.0631 97.3264 88.0631 98.918Z" fill="#030316"/>
<path d="M88.5748 87.5508C88.5748 89.142 87.2678 90.3926 85.733 90.3926H45.209C43.6174 90.3926 42.3672 89.142 42.3672 87.5508C42.3672 85.9592 43.6174 84.709 45.209 84.709H85.733C87.2678 84.709 88.5748 85.9592 88.5748 87.5508Z" fill="#030316"/>
<path d="M88.5748 87.5508C88.5748 89.142 87.2678 90.3926 85.733 90.3926H67.9434V84.709H85.733C87.2678 84.709 88.5748 85.9592 88.5748 87.5508Z" fill="#030316"/>
<path d="M83.2322 76.1836C83.2322 77.7748 81.9252 79.0254 80.3904 79.0254H45.209C43.6174 79.0254 42.3672 77.7748 42.3672 76.1836C42.3672 74.592 43.6174 73.3418 45.209 73.3418H80.3904C81.9252 73.3418 83.2322 74.592 83.2322 76.1836Z" fill="#030316"/>
<path d="M83.2322 76.1836C83.2322 77.7748 81.9252 79.0254 80.3904 79.0254H67.9434V73.3418H80.3904C81.9252 73.3418 83.2322 74.592 83.2322 76.1836Z" fill="#030316"/>
<path d="M93.709 64.8164C93.709 66.4076 92.2693 67.6582 90.6777 67.6582H45.209C43.6174 67.6582 42.3672 66.4076 42.3672 64.8164C42.3672 63.2248 43.6174 61.9746 45.209 61.9746H90.6777C92.2693 61.9746 93.709 63.2248 93.709 64.8164Z" fill="#030316"/>
<path d="M93.709 64.8164C93.709 66.4076 92.2693 67.6582 90.6777 67.6582H67.9434V61.9746H90.6777C92.2693 61.9746 93.709 63.2248 93.709 64.8164Z" fill="#030316"/>
<path d="M93.709 53.4492C93.709 55.0404 92.2693 56.291 90.6777 56.291H67.9434C66.3518 56.291 65.1016 55.0404 65.1016 53.4492C65.1016 51.8576 66.3518 50.6074 67.9434 50.6074H90.6777C92.2693 50.6074 93.709 51.8576 93.709 53.4492Z" fill="#030316"/>
<path d="M93.709 53.4492C93.709 55.0404 92.2693 56.291 90.6777 56.291H67.9434V50.6074H90.6777C92.2693 50.6074 93.709 51.8576 93.709 53.4492Z" fill="#030316"/>
<path d="M93.709 42.082C93.709 43.6736 92.2693 44.9238 90.6777 44.9238H67.9434C66.3518 44.9238 65.1016 43.6736 65.1016 42.082C65.1016 40.4904 66.3518 39.2402 67.9434 39.2402H90.6777C92.2693 39.2402 93.709 40.4904 93.709 42.082Z" fill="#030316"/>
<path d="M93.709 42.082C93.709 43.6736 92.2693 44.9238 90.6777 44.9238H67.9434V39.2402H90.6777C92.2693 39.2402 93.709 40.4904 93.709 42.082Z" fill="#030316"/>
</g>
<path d="M97.9238 85C85.3629 85 75 95.1734 75 107.734C75 120.295 85.3629 130.658 97.9238 130.658C110.485 130.658 120.848 120.295 120.848 107.734C120.848 95.1734 110.485 85 97.9238 85Z" fill="#78DE28"/>
<path d="M121 108.076C121 120.637 110.637 131 98.0762 131V85.3418C110.637 85.3418 121 95.5152 121 108.076Z" fill="#78DE28"/>
<path d="M108.881 104.831L98.367 115.346L97.5143 116.198C97.0029 116.767 96.2641 117.051 95.5252 117.051C94.7863 117.051 94.0475 116.767 93.5361 116.198L87.8525 110.515C86.7158 109.435 86.7158 107.616 87.8525 106.536C88.9324 105.399 90.7508 105.399 91.8309 106.536L95.5254 110.173L98.3672 107.332L104.904 100.852C105.983 99.7159 107.802 99.7159 108.882 100.852C110.018 101.932 110.018 103.751 108.881 104.831Z" fill="white"/>
<defs>
<clipPath id="clip0_173_7027">
<rect width="74" height="97" fill="white" transform="translate(31 22)"/>
</clipPath>
</defs>
</svg>
