<svg width="24" height="24" viewBox="0 0 24 24" fill="none" xmlns="http://www.w3.org/2000/svg">
<path d="M16 3V10.74" stroke="#7C9299" stroke-width="1.5" stroke-linecap="round" stroke-linejoin="round"/>
<path d="M8 10.74V3" stroke="#7C9299" stroke-width="1.5" stroke-linecap="round" stroke-linejoin="round"/>
<path d="M11.999 19.326L15.007 20.907C15.593 21.215 16.277 20.717 16.165 20.065L15.59 16.716L18.024 14.345C18.498 13.883 18.237 13.078 17.582 12.983L14.219 12.494L12.715 9.44501C12.422 8.85101 11.576 8.85101 11.283 9.44501L9.78 12.494L6.417 12.983C5.762 13.078 5.501 13.883 5.975 14.345L8.409 16.716L7.834 20.065C7.722 20.717 8.406 21.214 8.992 20.907L12 19.326" stroke="#7C9299" stroke-width="1.5" stroke-linecap="round" stroke-linejoin="round"/>
<path d="M10.062 11.922L6.005 9.596C5.384 9.24 5 8.578 5 7.861V5C5 3.895 5.895 3 7 3H17C18.105 3 19 3.895 19 5V7.861C19 8.578 18.617 9.24 17.995 9.596L13.938 11.922" stroke="#7C9299" stroke-width="1.5" stroke-linecap="round" stroke-linejoin="round"/>
</svg>
