<svg width="70" height="70" viewBox="0 0 70 70" fill="none" xmlns="http://www.w3.org/2000/svg">
<path fill-rule="evenodd" clip-rule="evenodd" d="M67.2306 33.9806V35C67.2306 52.7718 52.7718 67.2306 35 67.2306C17.2282 67.2306 2.76942 52.7718 2.76942 35C2.76942 17.2282 17.2282 2.76942 35 2.76942C44.1007 2.76942 52.7331 6.60175 58.836 13.3183L30.5404 40.8059L20.3625 31.1874L18.4589 33.1997L30.5669 44.6417L62.6228 13.5005L61.9575 12.6958C61.8202 12.5293 61.6822 12.3615 61.5416 12.1983C54.8868 4.44602 45.2132 0 35 0C15.7011 0 0 15.7011 0 35C0 54.2989 15.7011 70 35 70C54.2989 70 70 54.2989 70 35V33.9806H67.2306Z" fill="#FFF700"/>
</svg>
