<svg width="66" height="80" viewBox="0 0 66 80" fill="none" xmlns="http://www.w3.org/2000/svg">
<g clip-path="url(#clip0_3540_6248)">
<path d="M43.0724 70.0215C43.0724 64.5103 38.575 60.043 33.0268 60.043C27.4786 60.043 22.9812 64.5103 22.9812 70.0213C22.9812 75.5323 27.4788 80 33.0269 80C38.5751 80 43.0724 75.5325 43.0724 70.0215Z" fill="#F7C92B"/>
<path d="M33.0267 60.043C32.0112 60.043 31.0309 60.194 30.1069 60.4726C34.2308 61.7148 37.2329 65.5188 37.2329 70.0215C37.2329 74.5235 34.2308 78.3281 30.1069 79.5703C31.0536 79.8557 32.0375 80.0005 33.0267 80C38.5749 80 43.0723 75.5325 43.0723 70.0215C43.0723 64.5105 38.5749 60.043 33.0267 60.043Z" fill="#F2B51D"/>
<path d="M34.2006 11.7834C30.974 12.4271 27.8338 10.3517 27.1853 7.14656C26.5369 3.94206 28.627 0.82239 31.8528 0.17839C35.0787 -0.465443 38.2196 1.61006 38.8682 4.81506C39.5158 8.01956 37.4266 11.1394 34.2006 11.7834Z" fill="#F7C92B"/>
<path d="M38.8682 4.81506C38.22 1.61006 35.0791 -0.465443 31.853 0.17839C31.5526 0.23839 31.2628 0.32039 30.9834 0.420557C32.8666 1.10556 34.3578 2.71889 34.7819 4.81522C35.3701 7.72139 33.7055 10.5581 30.9841 11.5411C32.0133 11.9155 33.1266 11.9993 34.2008 11.7832C37.4268 11.1394 39.516 8.01956 38.8682 4.81522V4.81506Z" fill="#F2B51D"/>
<path d="M57.9076 68.3515H8.14613C3.69314 68.3515 0.0837402 64.766 0.0837402 60.3434C0.0840245 59.134 0.356728 57.9401 0.881802 56.8494C1.40688 55.7587 2.17097 54.7989 3.1179 54.0407L4.71647 52.7595C8.41415 49.7972 10.5643 45.3317 10.5643 40.6129V32.197C10.5643 19.7797 20.6977 9.71387 33.1983 9.71387C45.6981 9.71387 55.8321 19.7797 55.8321 32.197V40.7687C55.8326 43.0565 56.339 45.3162 57.3153 47.3875C58.2916 49.4588 59.7141 51.291 61.4817 52.7542L63.0384 54.0434C63.9556 54.8026 64.6937 55.7534 65.2003 56.8282C65.7069 57.903 65.9696 59.0756 65.9698 60.2627V60.3434C65.9698 64.766 62.3604 68.3512 57.9076 68.3512V68.3515Z" fill="#F7E249"/>
<path d="M63.0383 54.0435L61.4816 52.7544C57.9019 49.7889 55.8321 45.3984 55.8321 40.7681V32.1964C55.8321 19.7797 45.6982 9.71338 33.1983 9.71338C31.04 9.71203 28.8925 10.0174 26.821 10.6204C36.216 13.3554 43.0775 21.9797 43.0775 32.1965V40.7682C43.0775 45.3982 45.1473 49.7889 48.7272 52.7544L50.2845 54.0435C51.2017 54.8029 51.9397 55.7537 52.4463 56.8285C52.9529 57.9033 53.2157 59.0758 53.216 60.2629V60.3437C53.216 64.7662 49.6066 68.3514 45.1536 68.3514H57.9082C62.3604 68.3514 65.9698 64.7662 65.9698 60.3437V60.2629C65.9696 59.0757 65.7069 57.9032 65.2002 56.8284C64.6936 55.7535 63.9555 54.8028 63.0383 54.0435Z" fill="#F7C92B"/>
</g>
<defs>
<clipPath id="clip0_3540_6248">
<rect width="66" height="80" fill="white"/>
</clipPath>
</defs>
</svg>
