<svg width="80" height="80" viewBox="0 0 80 80" fill="none" xmlns="http://www.w3.org/2000/svg">
<circle cx="40" cy="40" r="38.5455" stroke="white" stroke-width="2.90909"/>
<mask id="path-2-inside-1_4124_10904" fill="white">
<path d="M60.5778 20.3751C60.5646 20.3772 60.5515 20.3786 60.5398 20.3807C60.0802 20.3121 59.6045 20.4478 59.2532 20.7814C54.2536 25.5435 46.113 25.5435 41.1133 20.7814C40.5513 20.2471 39.5033 20.2471 38.9413 20.7814C33.8128 25.6651 25.4659 25.6679 20.3374 20.7814C20.0564 20.5142 19.6231 20.3639 19.2265 20.3639C18.4713 20.3639 17.8331 20.9009 17.7395 21.617C15.7021 37.0914 24.7589 59.5641 39.4901 65.3465C39.6731 65.4185 39.8663 65.4542 40.0595 65.4542C40.2556 65.4542 40.4503 65.4178 40.6347 65.3444C55.3161 59.5145 64.3114 37.0501 62.2536 21.6149C62.1497 20.8303 61.3887 20.2744 60.5778 20.3751ZM40.0566 62.4612C27.8662 57.1999 19.8954 38.441 20.4882 24.6078C26.3982 28.4846 34.4407 28.1853 40.0288 23.7099C45.6081 28.163 53.6828 28.3734 59.4962 24.3365C60.2266 38.1634 52.2821 57.1264 40.0566 62.4612Z"/>
</mask>
<path d="M60.5778 20.3751C60.5646 20.3772 60.5515 20.3786 60.5398 20.3807C60.0802 20.3121 59.6045 20.4478 59.2532 20.7814C54.2536 25.5435 46.113 25.5435 41.1133 20.7814C40.5513 20.2471 39.5033 20.2471 38.9413 20.7814C33.8128 25.6651 25.4659 25.6679 20.3374 20.7814C20.0564 20.5142 19.6231 20.3639 19.2265 20.3639C18.4713 20.3639 17.8331 20.9009 17.7395 21.617C15.7021 37.0914 24.7589 59.5641 39.4901 65.3465C39.6731 65.4185 39.8663 65.4542 40.0595 65.4542C40.2556 65.4542 40.4503 65.4178 40.6347 65.3444C55.3161 59.5145 64.3114 37.0501 62.2536 21.6149C62.1497 20.8303 61.3887 20.2744 60.5778 20.3751ZM40.0566 62.4612C27.8662 57.1999 19.8954 38.441 20.4882 24.6078C26.3982 28.4846 34.4407 28.1853 40.0288 23.7099C45.6081 28.163 53.6828 28.3734 59.4962 24.3365C60.2266 38.1634 52.2821 57.1264 40.0566 62.4612Z" fill="#0A2027"/>
<path d="M60.5398 20.3807L59.4414 27.7465L60.6527 27.9271L61.858 27.7103L60.5398 20.3807ZM59.2532 20.7814L54.1252 15.3809L54.1169 15.3888L59.2532 20.7814ZM41.1133 20.7814L46.2496 15.3888L46.2443 15.3837L41.1133 20.7814ZM38.9413 20.7814L33.8103 15.3837L33.8055 15.3882L38.9413 20.7814ZM20.3374 20.7814L25.4747 15.3897L25.4683 15.3836L20.3374 20.7814ZM17.7395 21.617L25.123 22.5891L25.1238 22.583L17.7395 21.617ZM39.4901 65.3465L42.2181 58.4168L42.2113 58.4141L39.4901 65.3465ZM40.6347 65.3444L37.8862 58.4229L37.8799 58.4254L40.6347 65.3444ZM62.2536 21.6149L54.8708 22.5925L54.8717 22.5991L62.2536 21.6149ZM20.4882 24.6078L24.5729 18.3807L13.6091 11.1888L13.0477 24.289L20.4882 24.6078ZM40.0288 23.7099L44.6744 17.8893L40.0208 14.1751L35.3734 17.8971L40.0288 23.7099ZM59.4962 24.3365L66.9331 23.9437L66.2281 10.595L55.2484 18.2194L59.4962 24.3365ZM59.4104 13.0199C59.4677 13.0108 59.5126 13.0044 59.5341 13.0014C59.5452 12.9998 59.5535 12.9987 59.5556 12.9984C59.5566 12.9983 59.5574 12.9981 59.5561 12.9983C59.5554 12.9984 59.5527 12.9988 59.5496 12.9992C59.5401 13.0005 59.5002 13.0059 59.4506 13.0133C59.3997 13.0209 59.3193 13.0334 59.2215 13.051L61.858 27.7103C61.766 27.7269 61.6917 27.7384 61.647 27.745C61.6035 27.7515 61.57 27.7561 61.5668 27.7565C61.5653 27.7567 61.5643 27.7569 61.5652 27.7567C61.5655 27.7567 61.5679 27.7564 61.5705 27.756C61.5758 27.7553 61.5874 27.7537 61.6018 27.7517C61.6299 27.7478 61.6813 27.7404 61.7452 27.7303L59.4104 13.0199ZM61.6381 13.0148C59.0248 12.6252 56.2204 13.3914 54.1252 15.3809L64.3813 26.1818C62.9886 27.5042 61.1355 27.9991 59.4414 27.7465L61.6381 13.0148ZM54.1169 15.3888C51.9935 17.4113 48.373 17.4113 46.2496 15.3888L35.977 26.1739C43.8529 33.6756 56.5136 33.6756 64.3896 26.1739L54.1169 15.3888ZM46.2443 15.3837C44.3166 13.5513 41.9441 12.9334 40.0273 12.9334C38.1105 12.9334 35.7379 13.5513 33.8103 15.3837L44.0723 26.179C42.7067 27.4772 41.1391 27.8279 40.0273 27.8279C38.9155 27.8279 37.3479 27.4772 35.9823 26.179L46.2443 15.3837ZM33.8055 15.3882C31.5513 17.5349 27.7248 17.5337 25.4747 15.3897L15.2001 26.173C23.2069 33.8022 36.0743 33.7954 44.0771 26.1745L33.8055 15.3882ZM25.4683 15.3836C23.5962 13.6041 21.2271 12.9166 19.2265 12.9166V27.8112C18.5165 27.8112 17.8553 27.6828 17.255 27.4621C16.6632 27.2445 15.9217 26.859 15.2065 26.1791L25.4683 15.3836ZM19.2265 12.9166C15.0032 12.9166 10.9683 15.9639 10.3551 20.651L25.1238 22.583C24.698 25.838 21.9394 27.8112 19.2265 27.8112V12.9166ZM10.3559 20.6449C9.1177 30.0496 11.2497 40.9645 15.5746 50.2583C19.8583 59.4636 26.9402 68.4208 36.769 72.2788L42.2113 58.4141C37.3089 56.4898 32.4968 51.3195 29.0786 43.9742C25.7017 36.7175 24.3239 28.6588 25.123 22.5891L10.3559 20.6449ZM36.7622 72.2761C37.8297 72.6964 38.9496 72.9015 40.0595 72.9015V58.0069C40.783 58.0069 41.5165 58.1407 42.2181 58.4168L36.7622 72.2761ZM40.0595 72.9015C41.1803 72.9015 42.3113 72.6927 43.3895 72.2634L37.8799 58.4254C38.5892 58.143 39.3309 58.0069 40.0595 58.0069V72.9015ZM43.3832 72.2659C53.1786 68.3763 60.2247 59.4101 64.4807 50.2078C68.7778 40.9168 70.8867 30.0149 69.6356 20.6307L54.8717 22.5991C55.6784 28.6502 54.3186 36.698 50.962 43.9555C47.5645 51.3017 42.7722 56.4827 37.8862 58.4229L43.3832 72.2659ZM69.6364 20.6373C68.9545 15.4872 64.2102 12.4195 59.66 12.9846L61.4956 27.7656C58.5671 28.1292 55.3449 26.1734 54.8708 22.5925L69.6364 20.6373ZM43.0077 55.6236C39.1918 53.9767 35.2115 49.732 32.1756 43.4912C29.1955 37.365 27.6924 30.4399 27.9286 24.9266L13.0477 24.289C12.6912 32.6089 14.877 41.9798 18.7818 50.0067C22.6307 57.9189 28.7309 65.6844 37.1055 69.2988L43.0077 55.6236ZM16.4034 30.8349C24.9683 36.4532 36.5415 36.0441 44.6842 29.5228L35.3734 17.8971C32.3399 20.3265 27.8281 20.516 24.5729 18.3807L16.4034 30.8349ZM35.3831 29.5306C43.5638 36.0599 55.2563 36.3475 63.744 30.4535L55.2484 18.2194C52.1092 20.3994 47.6523 20.266 44.6744 17.8893L35.3831 29.5306ZM52.0593 24.7293C52.3491 30.2164 50.8874 37.1766 47.9201 43.3624C44.8977 49.6632 40.9075 53.9645 37.0781 55.6355L43.0351 69.287C51.4312 65.6232 57.5259 57.7755 61.3496 49.8043C65.2283 41.7182 67.3736 32.2835 66.9331 23.9437L52.0593 24.7293Z" fill="white" mask="url(#path-2-inside-1_4124_10904)"/>
<path d="M48.3115 50.0775V47.9996C48.3115 46.8974 47.8737 45.8403 47.0943 45.061C46.315 44.2816 45.2579 43.8438 44.1557 43.8438H35.844C34.7418 43.8438 33.6848 44.2816 32.9054 45.061C32.126 45.8403 31.6882 46.8974 31.6882 47.9996V50.0775" stroke="white" stroke-width="2.90909" stroke-linecap="round" stroke-linejoin="round"/>
<path d="M39.9999 39.6886C42.2951 39.6886 44.1557 37.828 44.1557 35.5328C44.1557 33.2376 42.2951 31.377 39.9999 31.377C37.7047 31.377 35.8441 33.2376 35.8441 35.5328C35.8441 37.828 37.7047 39.6886 39.9999 39.6886Z" stroke="white" stroke-width="2.90909" stroke-linecap="round" stroke-linejoin="round"/>
</svg>
