<svg width="40" height="40" viewBox="0 0 40 40" fill="none" xmlns="http://www.w3.org/2000/svg">
<circle cx="20" cy="20" r="20" fill="#06303D"/>
<path d="M9.5 19.25L11 17.75L12.5 19.25" stroke="#7C9299" stroke-width="1.5" stroke-linecap="round" stroke-linejoin="round"/>
<path d="M30.5 20.75L29 22.25L27.5 20.75" stroke="#7C9299" stroke-width="1.5" stroke-linecap="round" stroke-linejoin="round"/>
<path d="M12.678 14.79C14.31 12.501 16.975 11 20 11C24.97 11 29 15.03 29 20C29 20.684 28.917 21.348 28.773 21.988" stroke="#7C9299" stroke-width="1.5" stroke-linecap="round" stroke-linejoin="round"/>
<path d="M27.322 14.79C25.02 15.564 22.563 16 20 16C17.437 16 14.98 15.564 12.678 14.79" stroke="#7C9299" stroke-width="1.5" stroke-linecap="round" stroke-linejoin="round"/>
<path d="M27.318 25.2061C25.687 27.4951 23.022 28.9961 19.996 28.9961C15.026 28.9961 10.996 24.9661 10.996 19.9961C10.996 19.3121 11.079 18.6481 11.223 18.0081" stroke="#7C9299" stroke-width="1.5" stroke-linecap="round" stroke-linejoin="round"/>
<path d="M12.675 25.2061C14.977 24.4321 17.434 23.9961 19.997 23.9961C22.56 23.9961 25.017 24.4321 27.319 25.2061" stroke="#7C9299" stroke-width="1.5" stroke-linecap="round" stroke-linejoin="round"/>
<path d="M22.6517 13.636C24.1162 17.1508 24.1162 22.8492 22.6517 26.3639C21.1872 29.8787 18.8129 29.8787 17.3484 26.3639C15.8839 22.8492 15.8839 17.1507 17.3484 13.636C18.8129 10.1213 21.1872 10.1213 22.6517 13.636" stroke="#7C9299" stroke-width="1.5" stroke-linecap="round" stroke-linejoin="round"/>
</svg>
