<svg width="40" height="40" viewBox="0 0 40 40" fill="none" xmlns="http://www.w3.org/2000/svg">
<circle cx="20" cy="20" r="20" fill="#06303D"/>
<path d="M29 19.291C29 23.83 24.952 27.473 20 27.473C19.359 27.473 18.735 27.41 18.131 27.294" stroke="#7C9299" stroke-width="1.5" stroke-linecap="round" stroke-linejoin="round"/>
<path d="M14.599 25.826C12.42 24.336 11 21.974 11 19.291" stroke="#7C9299" stroke-width="1.5" stroke-linecap="round" stroke-linejoin="round"/>
<path d="M14.599 25.8262C14.598 26.6802 14.6 27.8322 14.6 29.0412" stroke="#7C9299" stroke-width="1.5" stroke-linecap="round" stroke-linejoin="round"/>
<path d="M11 19.2911C11 14.7521 15.048 11.1101 20 11.1101C24.952 11.1101 29 14.7531 29 19.2921" stroke="#7C9299" stroke-width="1.5" stroke-linecap="round" stroke-linejoin="round"/>
<path d="M18.13 27.29L14.6 29.04" stroke="#7C9299" stroke-width="1.5" stroke-linecap="round" stroke-linejoin="round"/>
<path d="M20.1768 19.3232C20.2744 19.4209 20.2744 19.5791 20.1768 19.6768C20.0792 19.7744 19.9209 19.7744 19.8232 19.6768C19.7256 19.5791 19.7256 19.4209 19.8232 19.3232C19.9209 19.2256 20.0792 19.2256 20.1768 19.3232Z" stroke="#7C9299" stroke-width="1.5" stroke-linecap="round" stroke-linejoin="round"/>
<path d="M24.1768 19.3232C24.2744 19.4209 24.2744 19.5791 24.1768 19.6768C24.0792 19.7744 23.9209 19.7744 23.8232 19.6768C23.7256 19.5791 23.7256 19.4209 23.8232 19.3232C23.9209 19.2256 24.0792 19.2256 24.1768 19.3232Z" stroke="#7C9299" stroke-width="1.5" stroke-linecap="round" stroke-linejoin="round"/>
<path d="M16.1768 19.3232C16.2744 19.4209 16.2744 19.5791 16.1768 19.6768C16.0791 19.7744 15.9209 19.7744 15.8232 19.6768C15.7256 19.5791 15.7256 19.4209 15.8232 19.3232C15.9209 19.2256 16.0791 19.2256 16.1768 19.3232Z" stroke="#7C9299" stroke-width="1.5" stroke-linecap="round" stroke-linejoin="round"/>
</svg>
