<svg width="24" height="24" viewBox="0 0 24 24" fill="none" xmlns="http://www.w3.org/2000/svg">
<path d="M6.85713 3.42856L4.28571 6.85713V18.8571C4.28571 19.3118 4.46632 19.7478 4.78781 20.0693C5.1093 20.3908 5.54533 20.5714 5.99999 20.5714H18C18.4546 20.5714 18.8907 20.3908 19.2122 20.0693C19.5337 19.7478 19.7143 19.3118 19.7143 18.8571V6.85713L17.1428 3.42856H6.85713Z" stroke="#7C9299" stroke-width="1.5" stroke-linecap="round" stroke-linejoin="round"/>
<path d="M4.28571 6.85715H19.7143" stroke="#7C9299" stroke-width="1.5" stroke-linecap="round" stroke-linejoin="round"/>
<path d="M15.4286 10.2857C15.4286 11.195 15.0673 12.0671 14.4243 12.7101C13.7814 13.3531 12.9093 13.7143 12 13.7143C11.0907 13.7143 10.2186 13.3531 9.57562 12.7101C8.93263 12.0671 8.57141 11.195 8.57141 10.2857" stroke="#7C9299" stroke-width="1.5" stroke-linecap="round" stroke-linejoin="round"/>
</svg>
