<svg width="24" height="24" viewBox="0 0 24 24" fill="none" xmlns="http://www.w3.org/2000/svg">
<path d="M5.57 4L8.43 4C8.96177 4 9.22765 4 9.43287 4.09854C9.63778 4.19694 9.80306 4.36222 9.90146 4.56713C10 4.77235 10 5.03823 10 5.57L10 8.43C10 8.96177 10 9.22765 9.90145 9.43287C9.80306 9.63778 9.63778 9.80306 9.43287 9.90146C9.22765 10 8.96177 10 8.43 10L5.57 10C5.03823 10 4.77235 10 4.56713 9.90146C4.36222 9.80306 4.19694 9.63778 4.09855 9.43287C4 9.22765 4 8.96177 4 8.43L4 5.57C4 5.03823 4 4.77235 4.09855 4.56713C4.19694 4.36222 4.36222 4.19694 4.56713 4.09854C4.77235 4 5.03823 4 5.57 4Z" stroke="#FFF700" stroke-width="1.5"/>
<path d="M5.57 14L8.43 14C8.96177 14 9.22765 14 9.43287 14.0985C9.63778 14.1969 9.80306 14.3622 9.90146 14.5671C10 14.7723 10 15.0382 10 15.57L10 18.43C10 18.9618 10 19.2277 9.90145 19.4329C9.80306 19.6378 9.63778 19.8031 9.43287 19.9015C9.22765 20 8.96177 20 8.43 20L5.57 20C5.03823 20 4.77235 20 4.56713 19.9015C4.36222 19.8031 4.19694 19.6378 4.09854 19.4329C4 19.2277 4 18.9618 4 18.43L4 15.57C4 15.0382 4 14.7723 4.09854 14.5671C4.19694 14.3622 4.36222 14.1969 4.56713 14.0985C4.77235 14 5.03823 14 5.57 14Z" stroke="#FFF700" stroke-width="1.5"/>
<path d="M15.57 4L18.43 4C18.9618 4 19.2277 4 19.4329 4.09854C19.6378 4.19694 19.8031 4.36222 19.9015 4.56713C20 4.77235 20 5.03823 20 5.57L20 8.43C20 8.96177 20 9.22765 19.9015 9.43287C19.8031 9.63778 19.6378 9.80306 19.4329 9.90145C19.2277 10 18.9618 10 18.43 10L15.57 10C15.0382 10 14.7723 10 14.5671 9.90145C14.3622 9.80306 14.1969 9.63778 14.0985 9.43287C14 9.22765 14 8.96177 14 8.43L14 5.57C14 5.03823 14 4.77235 14.0985 4.56713C14.1969 4.36222 14.3622 4.19694 14.5671 4.09854C14.7723 4 15.0382 4 15.57 4Z" stroke="#FFF700" stroke-width="1.5"/>
<path d="M15.57 14L18.43 14C18.9618 14 19.2277 14 19.4329 14.0985C19.6378 14.1969 19.8031 14.3622 19.9015 14.5671C20 14.7723 20 15.0382 20 15.57L20 18.43C20 18.9618 20 19.2277 19.9015 19.4329C19.8031 19.6378 19.6378 19.8031 19.4329 19.9015C19.2277 20 18.9618 20 18.43 20L15.57 20C15.0382 20 14.7723 20 14.5671 19.9015C14.3622 19.8031 14.1969 19.6378 14.0985 19.4329C14 19.2277 14 18.9618 14 18.43L14 15.57C14 15.0382 14 14.7723 14.0985 14.5671C14.1969 14.3622 14.3622 14.1969 14.5671 14.0985C14.7723 14 15.0382 14 15.57 14Z" stroke="#FFF700" stroke-width="1.5"/>
</svg>
