<svg width="28" height="28" viewBox="0 0 28 28" fill="none" xmlns="http://www.w3.org/2000/svg">
<path d="M19.3606 15.3125C19.1191 15.3137 18.9243 15.5097 18.9243 15.7512C18.9243 15.9927 19.1203 16.1887 19.3618 16.1875C19.6033 16.1875 19.7993 15.9915 19.7993 15.75C19.7993 15.5085 19.6033 15.3125 19.3606 15.3125Z" stroke="#979797" stroke-width="2" stroke-linecap="round" stroke-linejoin="round"/>
<path d="M3.5 5.83301V21.583C3.5 22.8722 4.54417 23.9163 5.83333 23.9163H22.1667C23.4558 23.9163 24.5 22.8722 24.5 21.583V9.91634C24.5 8.62718 23.4558 7.58301 22.1667 7.58301H5.25C4.284 7.58301 3.5 6.79901 3.5 5.83301ZM3.5 5.83301C3.5 4.86701 4.284 4.08301 5.25 4.08301H19.8333" stroke="#979797" stroke-width="2" stroke-linecap="round" stroke-linejoin="round"/>
</svg>
